<svg xmlns="http://www.w3.org/2000/svg" viewBox="0 0 32 32" fill="none">
  <defs>
    <linearGradient id="gradient" x1="0%" y1="0%" x2="100%" y2="100%">
      <stop offset="0%" style="stop-color:#2563eb;stop-opacity:1" />
      <stop offset="100%" style="stop-color:#1d4ed8;stop-opacity:1" />
    </linearGradient>
  </defs>
  <rect width="32" height="32" rx="6" fill="url(#gradient)"/>
  <path d="M16 8a6 6 0 0 1 6 6c0 2-1 3.5-2.5 4.5L19 19a2 2 0 0 1-2 2h-2a2 2 0 0 1-2-2l-.5-.5C11 17.5 10 16 10 14a6 6 0 0 1 6-6z" fill="white" opacity="0.9"/>
  <circle cx="16" cy="14" r="2" fill="url(#gradient)"/>
  <path d="M14 23h4v1a1 1 0 0 1-1 1h-2a1 1 0 0 1-1-1v-1z" fill="white" opacity="0.7"/>
</svg>